<?xml version="1.0" standalone="no"?>
<!DOCTYPE svg PUBLIC "-//W3C//DTD SVG 20010904//EN"
 "http://www.w3.org/TR/2001/REC-SVG-20010904/DTD/svg10.dtd">
<svg version="1.0" xmlns="http://www.w3.org/2000/svg"
 width="500.000000pt" height="500.000000pt" viewBox="0 0 500.000000 500.000000"
 preserveAspectRatio="xMidYMid meet">

<g transform="translate(0.000000,500.000000) scale(0.100000,-0.100000)"
fill="#000000" stroke="none">
<path d="M2322 3895 c-75 -17 -176 -48 -336 -105 -65 -23 -146 -45 -179 -48
-66 -8 -61 -1 -86 -106 -24 -102 -116 -189 -212 -202 -25 -3 -53 -10 -60 -15
-17 -10 -26 -138 -29 -409 -1 -107 -4 -189 -7 -182 -2 6 -11 12 -19 12 -10 0
-14 -12 -14 -41 0 -22 -5 -49 -11 -60 -8 -16 -3 -41 22 -116 28 -83 31 -100
22 -134 -10 -38 0 -57 11 -21 3 9 4 4 2 -13 -2 -16 -7 -38 -11 -48 -5 -13 -3
-17 6 -15 19 4 37 -163 21 -195 -6 -12 -13 -31 -15 -42 -4 -22 -12 21 -22 118
-4 35 -10 55 -17 51 -5 -4 -8 -19 -6 -35 3 -15 1 -26 -4 -23 -11 7 -10 98 1
110 5 5 12 20 16 34 4 17 3 21 -3 11 -7 -9 -11 22 -14 95 -4 81 -10 124 -27
167 -35 89 -45 74 -38 -55 l7 -112 -36 35 c-20 19 -44 51 -55 71 -10 21 -29
43 -42 49 -12 6 -37 25 -54 42 -18 17 -33 26 -33 21 0 -6 10 -19 21 -30 25
-22 63 -100 55 -113 -3 -4 18 -28 47 -53 64 -54 90 -70 58 -35 -14 15 -21 30
-17 34 4 5 20 -6 36 -23 28 -32 47 -114 65 -274 9 -78 -12 -53 -22 27 -8 60
-10 65 -83 139 -75 77 -149 129 -172 122 -6 -2 8 -14 33 -26 49 -24 113 -82
74 -68 -11 5 -24 9 -30 10 -5 1 -25 10 -42 19 -18 10 -33 15 -33 12 0 -12 83
-58 112 -61 18 -2 45 -16 60 -31 28 -26 28 -28 8 -35 -11 -4 -20 -16 -20 -28
0 -27 26 -89 47 -112 21 -23 41 -24 22 0 -48 58 -66 135 -31 125 13 -3 23 -24
35 -73 15 -64 60 -155 93 -187 29 -29 4 -25 -50 8 -31 18 -76 52 -101 76 -49
48 -56 43 -25 -17 22 -43 36 -53 25 -19 -6 17 7 11 62 -28 103 -72 123 -89
123 -106 0 -16 116 -197 126 -197 3 0 2 10 -1 23 -5 17 -4 19 4 7 6 -8 8 -22
6 -31 -3 -9 4 -24 16 -35 26 -22 79 -103 79 -118 0 -13 -114 105 -114 118 -1
6 -15 13 -32 18 -34 8 -154 108 -131 108 8 0 37 -15 63 -33 64 -43 74 -49 74
-43 0 3 -28 26 -62 51 -45 33 -71 45 -97 45 l-35 0 35 -37 c65 -70 66 -72 18
-62 -23 5 -51 15 -62 21 -12 6 -55 12 -97 13 l-75 3 46 -13 c55 -15 109 -45
109 -61 0 -7 32 -14 88 -19 48 -4 96 -13 108 -20 11 -7 33 -15 49 -17 20 -2
49 -26 103 -86 81 -89 82 -113 1 -32 -48 47 -54 50 -140 65 -91 15 -205 20
-233 9 -20 -8 -21 -24 -1 -24 8 0 15 4 15 9 0 12 117 13 125 1 4 -6 -5 -10
-20 -10 -14 0 -24 -4 -20 -9 3 -6 -16 -12 -42 -14 -45 -3 -44 -3 13 -5 40 -1
67 3 80 13 22 16 110 20 119 5 3 -6 1 -10 -5 -10 -25 0 -3 -46 35 -72 44 -31
105 -48 105 -29 0 6 -11 11 -25 11 -14 0 -25 5 -25 10 0 6 -8 10 -19 10 -10 0
-30 12 -45 27 l-27 27 22 8 c17 7 31 0 73 -35 47 -40 175 -107 208 -107 8 0 6
-5 -5 -11 -20 -11 -186 -14 -233 -4 -23 5 -26 4 -14 -5 29 -21 92 -51 97 -46
3 3 -2 8 -11 12 -37 14 -10 19 102 19 98 0 122 -4 150 -20 19 -11 89 -52 155
-91 67 -39 181 -107 254 -152 72 -45 136 -82 143 -82 6 0 30 13 54 29 77 53
479 291 492 291 7 0 14 6 17 13 3 9 38 12 131 12 122 0 126 -1 105 -17 -29
-25 -17 -22 41 7 51 26 67 42 30 30 -28 -9 -202 -9 -230 0 -20 6 -11 12 56 38
48 18 103 49 139 79 65 52 64 52 84 39 12 -8 13 -12 1 -26 -17 -20 -87 -55
-112 -55 -10 0 -18 -4 -18 -10 0 -28 100 11 140 54 23 26 24 28 8 40 -10 7
-15 16 -11 19 12 13 98 6 117 -8 13 -10 40 -14 80 -13 50 1 54 2 18 5 -23 2
-40 8 -37 14 4 5 -8 9 -25 9 -18 0 -29 4 -25 10 8 13 125 13 125 0 0 -5 10
-10 23 -10 22 1 22 1 2 16 -23 18 -153 15 -265 -5 -57 -11 -71 -18 -115 -62
-28 -27 -57 -49 -65 -49 -8 0 23 38 70 85 54 55 92 85 106 85 12 0 41 16 64
35 41 34 60 40 63 20 1 -5 -11 -13 -28 -17 -16 -4 6 -4 50 -1 48 3 83 11 87
18 13 22 62 49 113 61 l50 12 -80 -3 c-45 -2 -104 -13 -135 -24 -30 -11 -57
-18 -59 -16 -2 2 15 27 39 55 l42 50 -30 0 c-30 0 -152 -73 -152 -90 0 -5 27
9 59 32 32 22 64 39 69 37 18 -6 -110 -109 -135 -109 -13 0 -23 -5 -23 -10 0
-6 -37 -48 -82 -93 -45 -45 -71 -68 -57 -52 14 17 38 51 52 77 15 25 39 56 53
67 14 11 23 25 19 31 -3 5 -1 18 5 27 11 17 11 17 6 1 -3 -10 -3 -18 -1 -18 8
0 125 179 125 190 0 17 40 53 97 89 28 18 57 39 63 47 18 21 29 17 23 -8 -4
-20 -3 -21 7 -5 6 9 18 33 26 53 l15 36 -66 -56 c-69 -58 -145 -104 -145 -87
0 5 4 12 9 15 15 10 78 121 85 152 23 95 27 104 46 104 11 0 20 -5 20 -11 0
-16 -39 -97 -50 -104 -5 -3 -10 -11 -10 -17 0 -6 10 -3 21 8 43 38 65 129 34
140 -8 4 -15 10 -15 14 0 15 59 51 87 54 16 2 31 4 34 5 3 0 23 15 44 31 39
31 37 42 -2 15 -12 -9 -26 -14 -30 -13 -4 1 -18 -3 -30 -10 -13 -7 -23 -9 -23
-4 0 13 86 72 104 72 8 0 18 5 21 10 3 6 0 10 -7 10 -27 0 -94 -50 -169 -125
-76 -77 -77 -78 -84 -141 -4 -35 -11 -66 -16 -70 -11 -7 -6 55 18 195 12 75
21 99 43 125 16 17 32 28 36 23 4 -4 -3 -19 -17 -34 -32 -35 -6 -19 58 35 29
25 50 49 47 53 -8 13 30 91 55 113 11 11 21 23 21 29 0 5 -18 -7 -40 -27 -22
-20 -44 -36 -50 -36 -5 0 -20 -19 -34 -43 -14 -23 -41 -58 -60 -76 l-36 -35 7
112 c7 129 -3 144 -38 55 -17 -43 -23 -86 -27 -167 -3 -73 -7 -104 -14 -95 -6
10 -7 6 -3 -11 4 -14 11 -29 16 -34 11 -12 12 -116 1 -116 -5 0 -7 13 -4 29 2
16 -1 31 -6 35 -6 4 -13 -22 -17 -65 -4 -39 -11 -83 -15 -97 -8 -27 -8 -27 -9
5 -1 17 -6 33 -13 35 -18 6 2 194 21 190 9 -2 11 3 6 15 -4 10 -10 29 -12 43
-4 19 -2 22 6 10 16 -24 22 -6 8 29 -10 28 -8 43 22 130 28 79 32 101 22 118
-6 12 -11 40 -11 62 0 42 -12 53 -28 25 -6 -10 -11 91 -14 272 -3 159 -9 297
-13 307 -7 17 -16 20 -87 32 -86 14 -189 123 -203 214 -13 84 -15 85 -85 92
-40 4 -121 27 -209 59 -244 89 -298 102 -456 106 -97 2 -159 -1 -203 -11z
m349 -15 c54 -11 176 -48 271 -81 103 -36 199 -63 238 -67 l65 -7 6 -45 c20
-136 111 -236 239 -261 l57 -11 7 -91 c10 -142 7 -759 -4 -892 -26 -298 -81
-493 -189 -674 -99 -164 -190 -247 -430 -388 -80 -47 -210 -126 -288 -175
l-143 -89 -142 89 c-79 49 -214 131 -300 182 -87 51 -187 117 -223 147 -195
161 -321 423 -371 777 -18 130 -31 741 -19 969 l7 145 57 11 c120 24 216 120
236 236 13 75 12 75 63 75 32 0 109 21 237 65 310 107 435 124 626 85z m-1253
-1240 l0 -45 -15 35 c-21 47 -28 106 -14 114 6 4 12 19 12 34 2 37 17 -82 17
-138z m2193 106 c5 -6 9 -20 9 -31 0 -27 -31 -118 -37 -111 -3 3 -2 47 3 98 4
51 9 84 12 73 2 -11 8 -24 13 -29z m-2244 -236 c4 -62 2 -92 -4 -85 -14 13
-33 141 -32 207 l0 53 15 -40 c9 -22 18 -83 21 -135z m2292 7 c-6 -48 -17 -90
-22 -94 -14 -8 -2 170 15 222 l13 40 3 -40 c2 -22 -2 -80 -9 -128z m-2440 88
c18 -25 28 -45 22 -45 -11 0 -44 45 -54 73 -10 27 -3 21 32 -28z m2591 13
c-16 -30 -41 -58 -51 -58 -5 0 6 20 23 45 33 46 49 54 28 13z m-2288 -651 c17
-54 28 -100 25 -103 -8 -8 -40 44 -33 54 3 5 -4 18 -15 28 -36 32 -52 76 -52
136 1 80 14 95 30 33 8 -27 27 -94 45 -148z m2031 116 c0 -61 -16 -105 -51
-136 -11 -11 -19 -24 -16 -31 3 -7 -4 -24 -15 -37 -28 -33 -26 -15 9 88 16 49
34 113 41 142 14 68 31 54 32 -26z m-2162 -306 c-8 -8 -101 26 -101 36 0 2 25
-3 55 -12 30 -9 50 -20 46 -24z m2319 38 c0 -8 -81 -44 -97 -45 -30 0 -9 17
40 31 28 9 53 17 55 18 1 0 2 -1 2 -4z m-2234 -50 c18 -14 18 -14 -8 -15 -27
0 -43 12 -31 24 9 9 17 8 39 -9z m238 -160 c9 -14 15 -25 13 -25 -2 0 -14 11
-27 25 -13 14 -19 25 -13 25 6 0 18 -11 27 -25z"/>
<path d="M2275 3830 c-60 -15 -166 -49 -234 -74 -67 -26 -152 -52 -187 -58
-62 -12 -64 -13 -70 -48 -22 -123 -137 -243 -257 -265 -33 -7 -37 -10 -42 -49
-4 -24 -5 -245 -2 -492 5 -480 11 -559 62 -754 44 -171 98 -287 188 -405 78
-102 168 -173 387 -303 107 -63 237 -142 288 -174 l93 -59 117 74 c64 41 194
120 289 176 198 117 271 174 351 275 140 175 219 406 253 741 12 114 14 896 3
941 -3 13 -12 24 -20 24 -33 0 -130 46 -167 79 -53 48 -83 97 -103 170 l-17
59 -45 7 c-26 4 -116 31 -202 61 -323 114 -472 130 -685 74z m432 -5 c55 -14
160 -47 234 -74 74 -27 162 -55 196 -62 l61 -13 15 -55 c33 -117 116 -203 228
-237 l56 -17 7 -66 c10 -106 7 -746 -4 -866 -37 -407 -137 -658 -338 -846 -61
-57 -129 -104 -298 -204 -120 -71 -251 -151 -291 -177 l-73 -48 -73 48 c-40
26 -171 106 -291 177 -169 100 -237 147 -298 204 -136 128 -231 295 -282 499
-52 207 -58 278 -63 741 -3 238 -2 458 2 487 6 49 8 53 38 60 121 26 226 130
257 256 11 44 12 44 72 57 33 7 115 33 181 57 291 109 465 129 664 79z"/>
<path d="M1959 3238 c0 -7 -6 -93 -12 -191 -11 -151 -10 -177 1 -175 8 2 22
28 31 58 39 122 120 238 188 266 82 35 167 6 207 -71 21 -39 21 -52 21 -575 0
-527 0 -536 -22 -582 -23 -50 -69 -87 -135 -108 -21 -6 -38 -16 -38 -21 0 -5
120 -9 290 -9 170 0 290 4 290 9 0 5 -17 15 -37 21 -63 20 -109 56 -132 102
-21 44 -21 54 -21 589 0 511 1 546 19 579 38 72 124 100 205 66 74 -31 162
-160 196 -289 7 -26 18 -46 23 -44 13 4 11 67 -5 255 l-11 132 -528 0 c-416 0
-529 -3 -530 -12z m131 -26 c0 -4 -9 -13 -20 -19 -10 -7 -35 -36 -55 -65 l-35
-53 0 50 c0 87 5 95 61 95 27 0 49 -3 49 -8z m865 -2 c4 -6 9 -36 11 -68 5
-57 5 -57 -13 -32 -9 14 -38 44 -62 68 l-46 42 52 0 c29 0 55 -5 58 -10z
m-387 -31 c-22 -18 -42 -45 -48 -67 -8 -25 -10 -217 -8 -599 l3 -562 33 -33
c17 -19 32 -37 32 -41 0 -4 -49 -7 -110 -7 -60 0 -110 3 -110 7 0 4 15 22 33
41 l32 33 0 584 0 583 -32 46 -33 46 122 0 123 0 -37 -31z"/>
<path d="M2050 2723 c1 -5 15 -17 33 -28 l32 -20 3 -261 c2 -215 0 -263 -12
-279 -12 -16 -18 -18 -33 -9 -13 8 -18 24 -18 60 0 55 -8 74 -34 74 -26 0 -41
-21 -41 -58 0 -44 14 -68 50 -87 57 -29 113 -10 152 52 22 36 23 48 28 271 l5
234 28 23 c15 13 27 27 27 30 0 3 -49 5 -110 5 -60 0 -110 -3 -110 -7z m148
-30 c-13 -15 -17 -59 -20 -253 -3 -196 -7 -240 -21 -267 -24 -45 -38 -51 -26
-11 5 18 9 139 9 268 0 197 -3 239 -16 258 -15 22 -15 22 37 22 49 0 51 -1 37
-17z m-178 -492 c0 -22 3 -48 6 -58 4 -14 1 -13 -15 6 -20 22 -28 70 -14 84
15 16 23 5 23 -32z"/>
<path d="M2720 2712 c0 -2 14 -15 30 -29 l30 -25 0 -249 c0 -236 -1 -250 -20
-269 -11 -11 -24 -20 -30 -20 -5 0 -10 -4 -10 -10 0 -6 70 -10 189 -10 172 0
190 2 195 18 12 39 36 165 32 169 -2 3 -10 -6 -17 -19 -25 -48 -82 -109 -121
-129 -47 -24 -102 -19 -118 11 -6 11 -10 117 -10 263 0 242 0 244 23 265 13
12 29 22 37 22 7 0 10 3 6 8 -8 7 -216 12 -216 4z m131 -38 c-20 -25 -21 -39
-21 -263 0 -193 3 -241 15 -257 22 -30 18 -34 -30 -34 -47 0 -56 9 -30 30 13
10 15 52 15 258 0 239 -1 246 -22 269 l-21 23 57 0 57 0 -20 -26z m230 -527
c-8 -20 -17 -27 -38 -27 l-27 0 34 35 c37 38 47 35 31 -8z"/>
<path d="M1280 2074 c0 -14 22 -34 37 -34 6 0 29 -11 49 -25 40 -27 54 -31 54
-15 0 6 -6 10 -14 10 -8 0 -28 11 -44 25 -17 14 -36 25 -44 25 -8 0 -19 5 -26
12 -7 7 -12 8 -12 2z"/>
<path d="M3705 2070 c-3 -5 -13 -10 -21 -10 -9 0 -30 -11 -48 -25 -18 -14 -38
-25 -44 -25 -7 0 -12 -4 -12 -10 0 -16 14 -12 54 15 20 14 43 25 51 25 8 0 19
9 25 20 11 20 7 29 -5 10z"/>
<path d="M1843 1412 c-62 -4 -114 -25 -87 -36 10 -4 22 -2 28 4 5 5 28 10 51
10 36 0 77 14 65 22 -3 2 -29 2 -57 0z"/>
<path d="M3102 1408 c3 -8 26 -14 54 -16 26 -2 54 -8 60 -13 6 -5 19 -6 28 -3
26 10 -32 36 -69 31 -16 -2 -41 0 -53 4 -18 7 -23 6 -20 -3z"/>
</g>
</svg>
